<?xml version="1.0"?><svg width="640" height="480" xmlns="http://www.w3.org/2000/svg">
 <title>Camera icon</title>
 <metadata id="metadata12390">image/svg+xmlOther map symbolsMohamed IbrahimPublic Domainclker.comother map symbols</metadata>
 <g>
  <title>Layer 1</title>
  <path d="m81.703613,94.502724c-18.647854,0 -33.883255,15.166466 -33.883255,33.814323l0,259.518829c0,18.647888 15.235401,33.779877 33.883255,33.779877l259.449921,0c18.647858,0 33.779846,-15.131989 33.779846,-33.779877l0,-259.518829c0,-18.647858 -15.131989,-33.814323 -33.779846,-33.814323l-259.449921,0z" id="path2778" fill-rule="nonzero" fill="#ffffff"/>
  <path d="m235.470856,208.802704c21.646698,0 40.432404,11.788483 50.807648,29.160965l61.148438,0.068939l0,-32.780243c0,-12.202103 -9.927155,-22.094772 -22.094788,-22.094772l-227.876106,0c-12.20211,0 -22.025841,9.89267 -22.025841,22.094772l0.068954,32.504501l109.129593,0.068924c10.444183,-17.303543 29.16095,-29.023087 50.842102,-29.023087" id="path2780" fill-rule="nonzero" fill="#231f20"/>
  <path d="m132.5802,172.747879l-20.267914,0l-2.343895,7.30748l24.300804,0l-1.688995,-7.30748z" id="path2782" fill-rule="nonzero" fill="#231f20"/>
  <path d="m315.370544,168.852859l-26.98941,0l-4.791229,11.271439l36.158234,0l-4.377594,-11.271439z" id="path2784" fill-rule="nonzero" fill="#231f20"/>
  <path d="m222.717239,176.229279l-23.232254,0l0,-11.236969l23.232254,0l0,11.236969zm21.301987,-15.752441l-65.59494,0l-13.511948,19.785339l91.481339,0l-12.374451,-19.785339z" id="path2786" fill-rule="nonzero" fill="#231f20"/>
  <path d="m289.449677,243.823441c3.377991,7.445343 5.377197,15.649033 5.377197,24.369736c0,32.780243 -26.575775,59.390503 -59.356018,59.390503c-32.814713,0 -59.390488,-26.61026 -59.390488,-59.390503c0,-8.720703 1.964752,-16.924393 5.377197,-24.404205l-106.027359,0l0,89.482117c0,12.133179 9.82373,22.025848 22.025841,22.025848l227.876106,0c12.167633,0 22.094788,-9.89267 22.094788,-22.025848l0.068939,-89.447647l-58.046204,0z" id="path2788" fill-rule="nonzero" fill="#231f20"/>
  <path d="m267.837463,248.683594c-0.930664,-1.65451 -2.1026,-3.205627 -3.37796,-4.687805c-6.928345,-8.341553 -17.303574,-13.822174 -28.988647,-13.822174c-11.719528,0 -22.094772,5.446152 -29.023087,13.753235c-1.27536,1.516647 -2.447327,3.067764 -3.44693,4.756744c-3.481384,5.721909 -5.584015,12.339996 -5.584015,19.509583c0,20.957306 17.027802,37.985107 38.054031,37.985107c20.922821,0 37.950623,-17.027802 37.950623,-37.985107c0,-7.169586 -2.068146,-13.787674 -5.584015,-19.509583" id="path2790" fill-rule="nonzero" fill="#231f20"/>
 </g>
</svg>